<?xml version="1.0" encoding="UTF-8" standalone="no"?>
<!--
Sail logo by Jean Pichon, licensed under CC0 1.0
https://creativecommons.org/publicdomain/zero/1.0/
-->
<svg
   inkscape:export-ydpi="120.95238"
   inkscape:export-xdpi="120.95238"
   inkscape:export-filename="/Users/jp/Downloads/sail_logo/sail_logo_square.png"
   sodipodi:docname="sail_logo_square.svg"
   inkscape:version="1.2 (dc2aeda, 2022-05-15)"
   id="svg1562"
   version="1.1"
   viewBox="0 0 210 297"
   height="297mm"
   width="210mm"
   xmlns:inkscape="http://www.inkscape.org/namespaces/inkscape"
   xmlns:sodipodi="http://sodipodi.sourceforge.net/DTD/sodipodi-0.dtd"
   xmlns="http://www.w3.org/2000/svg"
   xmlns:svg="http://www.w3.org/2000/svg"
   xmlns:rdf="http://www.w3.org/1999/02/22-rdf-syntax-ns#"
   xmlns:cc="http://creativecommons.org/ns#"
   xmlns:dc="http://purl.org/dc/elements/1.1/">
  <defs
     id="defs1556">
    <rect
       id="rect2265"
       height="98.059586"
       width="352.30809"
       y="297.84524"
       x="-154.21429" />
    <rect
       id="rect2259"
       height="122.84226"
       width="379.48808"
       y="137.96131"
       x="-3.0238094" />
    <rect
       id="rect2253"
       height="131.15775"
       width="73.705356"
       y="137.96131"
       x="-3.0238094" />
    <filter
       height="1.0223028"
       y="-0.012800062"
       width="1.0474657"
       x="-0.023116111"
       id="filter2223"
       style="color-interpolation-filters:sRGB"
       inkscape:collect="always">
      <feGaussianBlur
         id="feGaussianBlur2225"
         stdDeviation="0.50459819"
         inkscape:collect="always" />
    </filter>
  </defs>
  <sodipodi:namedview
     inkscape:window-maximized="0"
     inkscape:window-y="38"
     inkscape:window-x="0"
     inkscape:window-height="828"
     inkscape:window-width="1639"
     showgrid="false"
     inkscape:document-rotation="0"
     inkscape:current-layer="layer1"
     inkscape:document-units="mm"
     inkscape:cy="576.65072"
     inkscape:cx="227.36514"
     inkscape:zoom="0.3034766"
     inkscape:pageshadow="2"
     inkscape:pageopacity="0.0"
     borderopacity="1.0"
     bordercolor="#666666"
     pagecolor="#ffffff"
     id="base"
     inkscape:showpageshadow="2"
     inkscape:pagecheckerboard="0"
     inkscape:deskcolor="#d1d1d1" />
  <metadata
     id="metadata1559">
    <rdf:RDF>
      <cc:Work
         rdf:about="">
        <dc:format>image/svg+xml</dc:format>
        <dc:type
           rdf:resource="http://purl.org/dc/dcmitype/StillImage" />
      </cc:Work>
    </rdf:RDF>
  </metadata>
  <g
     style="display:inline"
     id="layer1"
     inkscape:groupmode="layer"
     inkscape:label="Layer 1">
    <rect
       y="75.428589"
       x="0.28176534"
       height="210"
       width="210"
       id="rect2227"
       style="font-variation-settings:normal;display:inline;opacity:1;vector-effect:none;fill:#259dd5;fill-opacity:1;stroke:none;stroke-width:0.418936;stroke-linecap:butt;stroke-linejoin:miter;stroke-miterlimit:4;stroke-dasharray:none;stroke-dashoffset:0;stroke-opacity:1;stop-color:#000000;stop-opacity:1"
       inkscape:export-filename="/Users/jp/Downloads/rect2227.png"
       inkscape:export-xdpi="30.137592"
       inkscape:export-ydpi="30.137592" />
    <path
       id="path2207"
       d="m 251.73214,136.07143 61.23213,-72.571431 c 0,0 8.31548,52.160711 29.48215,110.369051 21.16667,58.20833 34.01785,86.93452 34.01785,86.93452 l -123.97618,14.36309 z"
       style="display:none;fill:#259dd5;fill-opacity:1;stroke:#ffffff;stroke-width:1;stroke-linecap:butt;stroke-linejoin:miter;stroke-miterlimit:4;stroke-dasharray:none;stroke-opacity:1;filter:url(#filter2223)" />
    <path
       id="path2209"
       d="m 166.30952,139.85119 62.74405,-48.380952 c 0,0 -4.53572,29.482142 1.5119,93.738092 6.04762,64.25595 10.77891,84.46662 10.77891,84.46662 l -75.10274,6.94901 z"
       style="font-variation-settings:normal;display:none;opacity:1;vector-effect:none;fill:#259dd5;fill-opacity:1;stroke:#ffffff;stroke-width:1;stroke-linecap:butt;stroke-linejoin:miter;stroke-miterlimit:4;stroke-dasharray:none;stroke-dashoffset:0;stroke-opacity:1;filter:url(#filter2223);stop-color:#000000;stop-opacity:1" />
    <path
       id="path2213"
       d="M 80.886905,138.33928 144.00893,89.202381 c 0,0 -2.64584,64.633929 1.13393,100.541669 3.77976,35.90773 9.82738,78.99702 9.82738,78.99702 l -74.461314,5.29167 z"
       style="font-variation-settings:normal;display:none;opacity:1;vector-effect:none;fill:#259dd5;fill-opacity:1;stroke:#ffffff;stroke-width:1;stroke-linecap:butt;stroke-linejoin:miter;stroke-miterlimit:4;stroke-dasharray:none;stroke-dashoffset:0;stroke-opacity:1;filter:url(#filter2223);stop-color:#000000;stop-opacity:1" />
    <path
       id="path2215"
       d="M -3.0238094,137.96131 60.47619,89.580356 c 0,0 -3.401785,55.562504 0.377976,98.651784 3.779761,43.08928 9.827381,80.88692 9.827381,80.88692 l -74.0833327,4.53569 z"
       style="font-variation-settings:normal;display:none;opacity:1;vector-effect:none;fill:#259dd5;fill-opacity:1;stroke:#ffffff;stroke-width:1;stroke-linecap:butt;stroke-linejoin:miter;stroke-miterlimit:4;stroke-dasharray:none;stroke-dashoffset:0;stroke-opacity:1;filter:url(#filter2223);stop-color:#000000;stop-opacity:1" />
    <path
       id="path2217"
       d="m 94.030424,262.96089 c 0,0 30.994046,-43.46726 43.845236,-74.08333 12.85119,-30.61607 27.97024,-68.79167 27.97024,-68.79167 0,0 -1.88988,52.16072 -1.51191,83.91072 0.37798,31.75 1.88989,49.51487 1.88989,49.51487 z"
       style="font-variation-settings:normal;opacity:1;vector-effect:none;fill:#259dd5;fill-opacity:1;stroke:#ffffff;stroke-width:2;stroke-linecap:butt;stroke-linejoin:miter;stroke-miterlimit:4;stroke-dasharray:none;stroke-dashoffset:0;stroke-opacity:1;stop-color:#000000;stop-opacity:1" />
    <path
       style="font-variation-settings:normal;display:inline;opacity:1;vector-effect:none;fill:#259dd5;fill-opacity:1;stroke:none;stroke-width:2.2;stroke-linecap:butt;stroke-linejoin:miter;stroke-miterlimit:4;stroke-dasharray:none;stroke-dashoffset:0;stroke-opacity:1;stop-color:#000000;stop-opacity:1"
       d="m 40.612293,267.7629 c 0,0 55.713686,-61.53452 76.502377,-95.2122 20.78869,-33.67767 50.7244,-77.333924 50.7244,-77.333924 0,0 -18.29404,51.971724 -22.45178,74.007734 -4.15774,22.03602 -2.07887,59.87143 -2.07887,59.87143 0,0 -15.38363,3.32619 -44.072022,14.13631 -28.688395,10.81012 -58.624105,24.53065 -58.624105,24.53065 z"
       id="path2219-2" />
    <path
       id="path2219"
       d="m 46.405423,259.93708 c 0,0 50.64881,-55.94047 69.547617,-86.55654 18.89881,-30.61607 46.1131,-70.30357 46.1131,-70.30357 0,0 -16.63096,47.24702 -20.41072,67.27976 -3.77976,20.03274 -1.88988,54.42857 -1.88988,54.42857 0,0 -13.98512,3.02381 -40.065473,12.85119 -26.080354,9.82738 -53.294644,22.30059 -53.294644,22.30059 z"
       style="font-variation-settings:normal;opacity:1;vector-effect:none;fill:#259dd5;fill-opacity:1;stroke:#ffffff;stroke-width:2;stroke-linecap:butt;stroke-linejoin:miter;stroke-miterlimit:4;stroke-dasharray:none;stroke-dashoffset:0;stroke-opacity:1;stop-color:#000000;stop-opacity:1" />
    <path
       sodipodi:nodetypes="cscscsc"
       id="path2221"
       d="m 12.830693,260.13048 c 0,0 28.27262,-28.27262 73.17619,-81.90743 44.903577,-53.63482 83.154757,-97.291074 83.154757,-97.291074 0,0 -27.85684,63.613384 -38.25118,86.480944 -10.39435,22.86756 -19.1256,48.64555 -19.1256,48.64555 0,0 -46.566667,19.95714 -62.781837,28.68839 -16.21518,8.73125 -36.17233,15.38362 -36.17233,15.38362"
       style="font-variation-settings:normal;display:inline;opacity:1;vector-effect:none;fill:#259dd5;fill-opacity:1;stroke:none;stroke-width:2.2;stroke-linecap:butt;stroke-linejoin:miter;stroke-miterlimit:4;stroke-dasharray:none;stroke-dashoffset:0;stroke-opacity:1;stop-color:#000000;stop-opacity:1" />
    <path
       style="font-variation-settings:normal;display:inline;opacity:1;vector-effect:none;fill:#259dd5;fill-opacity:1;stroke:#ffffff;stroke-width:2;stroke-linecap:butt;stroke-linejoin:miter;stroke-miterlimit:4;stroke-dasharray:none;stroke-dashoffset:0;stroke-opacity:1;stop-color:#000000;stop-opacity:1"
       d="m 19.947093,251.99959 c 0,0 25.70238,-25.70238 66.523805,-74.4613 40.821432,-48.75893 75.595232,-88.446434 75.595232,-88.446434 0,0 -25.3244,57.830354 -34.7738,78.619044 -9.44941,20.78869 -17.38691,44.22322 -17.38691,44.22322 0,0 -42.333327,18.14286 -57.074397,26.08036 -14.74107,7.9375 -32.88393,13.98511 -32.88393,13.98511"
       id="path2221-8"
       sodipodi:nodetypes="cscscsc" />
  </g>
  <g
     style="display:inline"
     inkscape:label="Layer 2"
     id="layer2"
     inkscape:groupmode="layer" />
</svg>
