<?xml version="1.0" encoding="UTF-8" standalone="no"?>
<!--
Sail logo by Jean Pichon, licensed under CC0 1.0
https://creativecommons.org/publicdomain/zero/1.0/
-->
<svg
   inkscape:export-ydpi="24.944618"
   inkscape:export-xdpi="24.944618"
   inkscape:export-filename="/Users/jp/Downloads/sail_logo/sail_logo5.png"
   sodipodi:docname="sail_logo.svg"
   inkscape:version="1.2 (dc2aeda, 2022-05-15)"
   id="svg1562"
   version="1.1"
   viewBox="0 0 210 297"
   height="297mm"
   width="210mm"
   xmlns:inkscape="http://www.inkscape.org/namespaces/inkscape"
   xmlns:sodipodi="http://sodipodi.sourceforge.net/DTD/sodipodi-0.dtd"
   xmlns="http://www.w3.org/2000/svg"
   xmlns:svg="http://www.w3.org/2000/svg"
   xmlns:rdf="http://www.w3.org/1999/02/22-rdf-syntax-ns#"
   xmlns:cc="http://creativecommons.org/ns#"
   xmlns:dc="http://purl.org/dc/elements/1.1/">
  <defs
     id="defs1556">
    <rect
       id="rect2265"
       height="98.059586"
       width="352.30809"
       y="297.84524"
       x="-154.21429" />
    <rect
       id="rect2259"
       height="122.84226"
       width="379.48808"
       y="137.96131"
       x="-3.0238094" />
    <rect
       id="rect2253"
       height="131.15775"
       width="73.705356"
       y="137.96131"
       x="-3.0238094" />
    <filter
       height="1.0223028"
       y="-0.012800062"
       width="1.0474657"
       x="-0.023116111"
       id="filter2223"
       style="color-interpolation-filters:sRGB"
       inkscape:collect="always">
      <feGaussianBlur
         id="feGaussianBlur2225"
         stdDeviation="0.50459819"
         inkscape:collect="always" />
    </filter>
  </defs>
  <sodipodi:namedview
     inkscape:window-maximized="0"
     inkscape:window-y="38"
     inkscape:window-x="0"
     inkscape:window-height="828"
     inkscape:window-width="1639"
     showgrid="false"
     inkscape:document-rotation="0"
     inkscape:current-layer="layer1"
     inkscape:document-units="mm"
     inkscape:cy="764.94419"
     inkscape:cx="-22.415947"
     inkscape:zoom="0.35688878"
     inkscape:pageshadow="2"
     inkscape:pageopacity="0.0"
     borderopacity="1.0"
     bordercolor="#666666"
     pagecolor="#ffffff"
     id="base"
     inkscape:showpageshadow="2"
     inkscape:pagecheckerboard="0"
     inkscape:deskcolor="#d1d1d1" />
  <metadata
     id="metadata1559">
    <rdf:RDF>
      <cc:Work
         rdf:about="">
        <dc:format>image/svg+xml</dc:format>
        <dc:type
           rdf:resource="http://purl.org/dc/dcmitype/StillImage" />
      </cc:Work>
    </rdf:RDF>
  </metadata>
  <g
     style="display:inline"
     id="layer1"
     inkscape:groupmode="layer"
     inkscape:label="Layer 1">
    <rect
       y="64.966499"
       x="-180.18932"
       height="247.78355"
       width="540.05695"
       id="rect2227"
       style="font-variation-settings:normal;display:inline;opacity:1;vector-effect:none;fill:#259dd5;fill-opacity:1;stroke:none;stroke-width:0.729768;stroke-linecap:butt;stroke-linejoin:miter;stroke-miterlimit:4;stroke-dasharray:none;stroke-dashoffset:0;stroke-opacity:1;stop-color:#000000;stop-opacity:1"
       inkscape:export-filename="/Users/jp/Downloads/rect2227.png"
       inkscape:export-xdpi="30.137592"
       inkscape:export-ydpi="30.137592" />
    <path
       id="path2207"
       d="m 251.73214,136.07143 61.23213,-72.571431 c 0,0 8.31548,52.160711 29.48215,110.369051 21.16667,58.20833 34.01785,86.93452 34.01785,86.93452 l -123.97618,14.36309 z"
       style="display:none;fill:#259dd5;fill-opacity:1;stroke:#ffffff;stroke-width:1;stroke-linecap:butt;stroke-linejoin:miter;stroke-miterlimit:4;stroke-dasharray:none;stroke-opacity:1;filter:url(#filter2223)" />
    <path
       id="path2209"
       d="m 166.30952,139.85119 62.74405,-48.380952 c 0,0 -4.53572,29.482142 1.5119,93.738092 6.04762,64.25595 10.77891,84.46662 10.77891,84.46662 l -75.10274,6.94901 z"
       style="font-variation-settings:normal;display:none;opacity:1;vector-effect:none;fill:#259dd5;fill-opacity:1;stroke:#ffffff;stroke-width:1;stroke-linecap:butt;stroke-linejoin:miter;stroke-miterlimit:4;stroke-dasharray:none;stroke-dashoffset:0;stroke-opacity:1;filter:url(#filter2223);stop-color:#000000;stop-opacity:1" />
    <path
       id="path2213"
       d="M 80.886905,138.33928 144.00893,89.202381 c 0,0 -2.64584,64.633929 1.13393,100.541669 3.77976,35.90773 9.82738,78.99702 9.82738,78.99702 l -74.461314,5.29167 z"
       style="font-variation-settings:normal;display:none;opacity:1;vector-effect:none;fill:#259dd5;fill-opacity:1;stroke:#ffffff;stroke-width:1;stroke-linecap:butt;stroke-linejoin:miter;stroke-miterlimit:4;stroke-dasharray:none;stroke-dashoffset:0;stroke-opacity:1;filter:url(#filter2223);stop-color:#000000;stop-opacity:1" />
    <path
       id="path2215"
       d="M -3.0238094,137.96131 60.47619,89.580356 c 0,0 -3.401785,55.562504 0.377976,98.651784 3.779761,43.08928 9.827381,80.88692 9.827381,80.88692 l -74.0833327,4.53569 z"
       style="font-variation-settings:normal;display:none;opacity:1;vector-effect:none;fill:#259dd5;fill-opacity:1;stroke:#ffffff;stroke-width:1;stroke-linecap:butt;stroke-linejoin:miter;stroke-miterlimit:4;stroke-dasharray:none;stroke-dashoffset:0;stroke-opacity:1;filter:url(#filter2223);stop-color:#000000;stop-opacity:1" />
    <path
       id="path2217"
       d="m -87.312499,275.16666 c 0,0 30.994048,-43.46726 43.845239,-74.08333 12.851188,-30.61607 27.970236,-68.79167 27.970236,-68.79167 0,0 -1.889881,52.16072 -1.511904,83.91072 0.377976,31.75 1.889881,49.51487 1.889881,49.51487 z"
       style="font-variation-settings:normal;opacity:1;vector-effect:none;fill:#259dd5;fill-opacity:1;stroke:#ffffff;stroke-width:2;stroke-linecap:butt;stroke-linejoin:miter;stroke-miterlimit:4;stroke-dasharray:none;stroke-dashoffset:0;stroke-opacity:1;stop-color:#000000;stop-opacity:1" />
    <path
       style="font-variation-settings:normal;display:inline;opacity:1;vector-effect:none;fill:#259dd5;fill-opacity:1;stroke:none;stroke-width:2.2;stroke-linecap:butt;stroke-linejoin:miter;stroke-miterlimit:4;stroke-dasharray:none;stroke-dashoffset:0;stroke-opacity:1;stop-color:#000000;stop-opacity:1"
       d="m -140.73063,279.96867 c 0,0 55.713686,-61.53452 76.502376,-95.2122 20.78869,-33.67767 50.724402,-77.33392 50.724402,-77.33392 0,0 -18.294045,51.97172 -22.451782,74.00773 -4.157737,22.03602 -2.07887,59.87143 -2.07887,59.87143 0,0 -15.38363,3.32619 -44.072021,14.13631 -28.688395,10.81012 -58.624105,24.53065 -58.624105,24.53065 z"
       id="path2219-2" />
    <path
       id="path2219"
       d="m -134.9375,272.14285 c 0,0 50.64881,-55.94047 69.547619,-86.55654 18.898809,-30.61607 46.113095,-70.30357 46.113095,-70.30357 0,0 -16.630953,47.24702 -20.410714,67.27976 -3.77976,20.03274 -1.889881,54.42857 -1.889881,54.42857 0,0 -13.985118,3.02381 -40.065475,12.85119 -26.080354,9.82738 -53.294644,22.30059 -53.294644,22.30059 z"
       style="font-variation-settings:normal;opacity:1;vector-effect:none;fill:#259dd5;fill-opacity:1;stroke:#ffffff;stroke-width:2;stroke-linecap:butt;stroke-linejoin:miter;stroke-miterlimit:4;stroke-dasharray:none;stroke-dashoffset:0;stroke-opacity:1;stop-color:#000000;stop-opacity:1" />
    <path
       sodipodi:nodetypes="cscscsc"
       id="path2221"
       d="m -168.51223,272.33625 c 0,0 28.27262,-28.27262 73.17619,-81.90743 44.903573,-53.63482 83.154761,-97.29107 83.154761,-97.29107 0,0 -27.856845,63.61338 -38.251188,86.48094 -10.394347,22.86756 -19.125597,48.64555 -19.125597,48.64555 0,0 -46.566666,19.95714 -62.781836,28.68839 -16.21518,8.73125 -36.17233,15.38362 -36.17233,15.38362"
       style="font-variation-settings:normal;display:inline;opacity:1;vector-effect:none;fill:#259dd5;fill-opacity:1;stroke:none;stroke-width:2.2;stroke-linecap:butt;stroke-linejoin:miter;stroke-miterlimit:4;stroke-dasharray:none;stroke-dashoffset:0;stroke-opacity:1;stop-color:#000000;stop-opacity:1" />
    <path
       style="font-variation-settings:normal;display:inline;opacity:1;vector-effect:none;fill:#259dd5;fill-opacity:1;stroke:#ffffff;stroke-width:2;stroke-linecap:butt;stroke-linejoin:miter;stroke-miterlimit:4;stroke-dasharray:none;stroke-dashoffset:0;stroke-opacity:1;stop-color:#000000;stop-opacity:1"
       d="m -161.39583,264.20536 c 0,0 25.70238,-25.70238 66.523805,-74.4613 40.821437,-48.75893 75.595237,-88.44643 75.595237,-88.44643 0,0 -25.3244,57.83035 -34.7738,78.61904 C -63.5,200.70536 -71.4375,224.13989 -71.4375,224.13989 c 0,0 -42.33333,18.14286 -57.0744,26.08036 -14.74107,7.9375 -32.88393,13.98511 -32.88393,13.98511"
       id="path2221-8"
       sodipodi:nodetypes="cscscsc" />
  </g>
  <g
     style="display:inline"
     inkscape:label="Layer 2"
     id="layer2"
     inkscape:groupmode="layer">
    <text
       transform="matrix(1.35,0,0,1.35,7.3763855,-103.02894)"
       style="font-style:normal;font-variant:normal;font-weight:bold;font-stretch:normal;font-size:96.6872px;line-height:1.25;font-family:'Univers LT Std';-inkscape-font-specification:'Univers LT Std, Bold';font-variant-ligatures:normal;font-variant-caps:normal;font-variant-numeric:normal;font-variant-east-asian:normal;white-space:pre;shape-inside:url(#rect2259);display:inline;opacity:1;vector-effect:none;fill:#ffffff;fill-opacity:1;stroke:#ffffff;stroke-width:0.540569;stroke-linecap:butt;stroke-linejoin:miter;stroke-miterlimit:4;stroke-dasharray:none;stroke-dashoffset:0;stroke-opacity:1;stop-color:#000000;stop-opacity:1"
       id="text2257"
       xml:space="preserve"><tspan
         x="-3.0234375"
         y="225.93364"
         id="tspan1117"><tspan
           style="vector-effect:none;stop-color:#000000;stop-opacity:1"
           id="tspan1115">Sail</tspan></tspan></text>
    <text
       transform="translate(161.77381,-83.154765)"
       style="font-style:normal;font-variant:normal;font-weight:normal;font-stretch:normal;font-size:24.6944px;line-height:1.25;font-family:'Univers LT Std';-inkscape-font-specification:'Univers LT Std, Normal';font-variant-ligatures:normal;font-variant-caps:normal;font-variant-numeric:normal;font-variant-east-asian:normal;white-space:pre;shape-inside:url(#rect2265);display:inline;opacity:1;vector-effect:none;fill:#ffffff;fill-opacity:1;stroke:#ffffff;stroke-width:0.729768;stroke-linecap:butt;stroke-linejoin:miter;stroke-miterlimit:4;stroke-dasharray:none;stroke-dashoffset:0;stroke-opacity:1;stop-color:#000000;stop-opacity:1"
       id="text2263"
       xml:space="preserve"><tspan
         x="-154.21484"
         y="320.31438"
         id="tspan1121"><tspan
           style="font-size:22.9306px"
           id="tspan1119">a domain-specific language
</tspan></tspan><tspan
         x="-154.21484"
         y="351.18239"
         id="tspan1125"><tspan
           style="font-size:22.9306px"
           id="tspan1123">for instruction set architectures</tspan></tspan></text>
  </g>
</svg>
